<svg height="25px" width="25px" style="fill: #dcc7d8" viewbox="0 0 1000 901" xmlns="http://www.w3.org/2000/svg"><path d="M884 544c16 34.7 20.7 66.7 14 96c0 0 -34 184 -34 184c-1.3 13.3 -7.7 25 -19 35c-11.3 10 -24.3 15 -39 15c0 0 -712 0 -712 0c-14.7 0 -27.7 -5 -39 -15c-11.3 -10 -17.7 -21.7 -19 -35c0 0 -34 -184 -34 -184c-5.3 -33.3 -0.7 -65.3 14 -96c0 0 158 -374 158 -374c14.7 -30.7 38.7 -46 72 -46c0 0 104 0 104 0c0 0 -20 204 -20 204c0 0 -134 0 -134 0c0 0 254 210 254 210c0 0 256 -210 256 -210c0 0 -136 0 -136 0c0 0 -18 -204 -18 -204c0 0 102 0 102 0c33.3 0 58 15.3 74 46c0 0 156 374 156 374m-68 132c1.3 -14.7 -2 -27.3 -10 -38c-8 -10.7 -19.3 -16 -34 -16c0 0 -644 0 -644 0c-14.7 0 -26 5.3 -34 16c-8 10.7 -11.3 23.3 -10 38c0 0 14 74 14 74c1.3 14.7 7.7 27 19 37c11.3 10 23.7 15 37 15c0 0 592 0 592 0c14.7 0 27.7 -5 39 -15c11.3 -10 17.7 -22.3 19 -37c0 0 12 -74 12 -74" /></svg>